<svg id="Layer_1" data-name="Layer 1" xmlns="http://www.w3.org/2000/svg" xmlns:xlink="http://www.w3.org/1999/xlink" viewBox="0 0 200.2 90.4"><defs><style>.cls-1{font-size:45px;}.cls-1,.cls-2{fill:#fff;font-family:SegoeUI-Semilight, Segoe UI;font-weight:300;}.cls-2{font-size:25px;}</style><image id="image" width="48" height="48" xlink:href="../Downloads/icons8-star-48.png"/></defs><title>logo</title><text class="cls-1" transform="translate(12.62 72.73)">نالا يرابحا</text><text y="-7.4"/><image width="80" height="80" transform="matrix(0.3, 0.17, -0.16, 0.29, 171.13, 18.7)" xlink:href="../Downloads/icons8-star-80.png"/><use transform="translate(156.25 16.62) scale(0.21 0.23)" xlink:href="#image"/><use transform="translate(146.05 21) scale(0.21 0.23)" xlink:href="#image"/><use transform="translate(90.31 9.92) scale(0.21 0.23)" xlink:href="#image"/><use transform="translate(111.71 12.94) scale(0.21 0.23)" xlink:href="#image"/><use transform="translate(122.28 15.46) scale(0.21 0.23)" xlink:href="#image"/><use transform="translate(134.17 18.48) scale(0.21 0.23)" xlink:href="#image"/><use transform="translate(101.14 11.36) scale(0.21 0.23)" xlink:href="#image"/><use transform="translate(106.61 24.02) scale(0.21 0.23)" xlink:href="#image"/><use transform="translate(117.18 26.54) scale(0.21 0.23)" xlink:href="#image"/><use transform="translate(129.07 29.56) scale(0.21 0.23)" xlink:href="#image"/><use transform="translate(140.95 32.08) scale(0.21 0.23)" xlink:href="#image"/><use transform="translate(151.52 35.1) scale(0.21 0.23)" xlink:href="#image"/><use transform="translate(47.4 12.94) scale(0.21 0.23)" xlink:href="#image"/><use transform="translate(52.5 24.02) scale(0.21 0.23)" xlink:href="#image"/><use transform="translate(57.6 9.92) scale(0.21 0.23)" xlink:href="#image"/><use transform="translate(62.7 22.44) scale(0.21 0.23)" xlink:href="#image"/><use transform="translate(72.9 21) scale(0.21 0.23)" xlink:href="#image"/><use transform="translate(85.21 21) scale(0.21 0.23)" xlink:href="#image"/><use transform="translate(67.8 7.4) scale(0.21 0.23)" xlink:href="#image"/><use transform="translate(80.11 7.4) scale(0.21 0.23)" xlink:href="#image"/><use transform="translate(96.04 22.44) scale(0.21 0.23)" xlink:href="#image"/><use transform="translate(32.1 32.08) scale(0.21 0.23)" xlink:href="#image"/><use transform="translate(29.52 21) scale(0.21 0.23)" xlink:href="#image"/><use transform="translate(42.3 29.56) scale(0.21 0.23)" xlink:href="#image"/><use transform="translate(39.72 16.9) scale(0.21 0.23)" xlink:href="#image"/><use transform="translate(22.74 37.62) scale(0.21 0.23)" xlink:href="#image"/><use transform="translate(17.26 26.92) rotate(-4.11) scale(0.21 0.23)" xlink:href="#image"/><use transform="translate(2.34 50) scale(0.21 0.23)" xlink:href="#image"/><use transform="translate(0 37.62) scale(0.21 0.23)" xlink:href="#image"/><use transform="translate(12.54 44.46) scale(0.21 0.23)" xlink:href="#image"/><use transform="matrix(0.21, -0.01, 0.01, 0.23, 7.2, 32.39)" xlink:href="#image"/><text y="-7.4"/><text class="cls-2" transform="translate(189.36 35.76)">ء</text></svg>