<?xml version="1.0" encoding="UTF-8"?>
<svg xmlns="http://www.w3.org/2000/svg" xmlns:xlink="http://www.w3.org/1999/xlink" width="96pt" height="96pt" viewBox="0 0 96 96" version="1.1">
<g id="surface13194508">
<path style=" stroke:none;fill-rule:nonzero;fill:rgb(0%,0%,0%);fill-opacity:1;" d="M 55.378906 4.074219 C 48.820312 4.074219 43.253906 6.105469 39.503906 10.179688 C 35.753906 14.253906 33.996094 20.066406 33.996094 27 L 33.996094 34 L 27.035156 34 C 23.179688 34 19.996094 37.210938 20.035156 41.066406 L 20.09375 47.074219 C 20.09375 47.074219 20.09375 47.078125 20.09375 47.078125 C 20.140625 50.882812 23.292969 54.011719 27.101562 54.007812 L 34 54.003906 L 34 87 C 34 90.828125 37.171875 94 41 94 L 49 94 C 52.828125 94 56 90.828125 56 87 L 56 54 L 62.191406 54 C 65.71875 54 68.734375 51.3125 69.144531 47.808594 L 69.84375 41.808594 C 70.320312 37.703125 67.027344 34 62.890625 34 L 56.039062 34 L 56.125 27.425781 C 56.125 27.414062 56.125 27.398438 56.125 27.386719 C 56.125 26.015625 57.167969 24.972656 58.539062 24.972656 L 64.355469 24.972656 C 67.472656 24.972656 70.0625 22.382812 70.0625 19.265625 L 70.0625 10.125 C 70.0625 7.195312 67.78125 4.699219 64.867188 4.4375 C 64.863281 4.4375 64.863281 4.4375 64.859375 4.4375 C 64.289062 4.386719 60.355469 4.074219 55.378906 4.074219 Z M 55.378906 10.074219 C 59.933594 10.074219 64.027344 10.402344 64.0625 10.402344 L 64.0625 18.972656 L 58.539062 18.972656 C 53.925781 18.972656 50.125 22.773438 50.125 27.386719 L 50 36.960938 C 49.988281 37.761719 50.300781 38.535156 50.863281 39.109375 C 51.429688 39.679688 52.199219 40 53 40 L 62.890625 40 C 63.542969 40 63.957031 40.472656 63.882812 41.117188 L 63.1875 47.113281 C 63.125 47.644531 62.722656 48 62.191406 48 L 53 48 C 51.34375 48 50 49.34375 50 51 L 50 87 C 50 87.589844 49.589844 88 49 88 L 41 88 C 40.410156 88 40 87.589844 40 87 L 40 51 C 40 49.34375 38.65625 48 37 48 L 27.097656 48.007812 C 27.097656 48.007812 27.09375 48.007812 27.09375 48.007812 C 26.515625 48.007812 26.105469 47.597656 26.09375 47.011719 L 26.035156 41.007812 C 26.03125 40.417969 26.441406 40 27.035156 40 L 36.996094 40 C 38.652344 40 39.996094 38.65625 39.996094 37 L 39.996094 27 C 39.996094 21.066406 41.464844 16.917969 43.921875 14.246094 C 46.378906 11.574219 50.003906 10.074219 55.378906 10.074219 Z M 55.378906 10.074219 "/>
</g>
</svg>
